<?xml version="1.0" encoding="utf-8"?>
<!-- Generator: Adobe Illustrator 16.0.0, SVG Export Plug-In . SVG Version: 6.00 Build 0)  -->
<!DOCTYPE svg PUBLIC "-//W3C//DTD SVG 1.1//EN" "http://www.w3.org/Graphics/SVG/1.1/DTD/svg11.dtd">
<svg version="1.1" id="Layer_1" xmlns="http://www.w3.org/2000/svg" xmlns:xlink="http://www.w3.org/1999/xlink" x="0px" y="0px"
	 width="285.991px" height="139.366px" viewBox="0 0 285.991 139.366" enable-background="new 0 0 285.991 139.366"
	 xml:space="preserve">
<g>
	<g>
		<g>
			<path fill="#736357" d="M57.523,92.479c-1.82-4.353-2.705-10.482-2.705-18.725c0-8.552,0.969-18.375,1.906-27.875
				c0.926-9.378,1.883-19.077,1.883-27.423c0-5.028,0-13.446-6.205-13.446c-4.394,0-9.54,4.901-13.079,9.006
				c-15.602,17.783-25.948,54.669-29.28,83.338c-0.267,2.308-0.531,3.191-0.696,3.529c-0.299-0.233-0.996-0.964-1.936-3.13
				c-2.542-5.917-3.777-13.068-3.777-21.86c0-18.912,6.029-42.042,11.916-62.142c0.182-0.548,0.182-0.938,0.182-1.105
				c0-0.848-0.546-1.292-1.086-1.292c-0.822,0-1.316,0.862-1.453,1.444C6.34,34.654,0,57.51,0,76.625
				c0,8.303,1.278,15.573,3.797,21.608l0.002,0.006c2.412,5.678,4.11,7.994,5.862,7.994c1.959,0,3.081-2.72,3.871-9.392
				c4.152-34.937,15.147-65.425,29.417-81.562c3.241-3.712,6.558-6.018,8.657-6.018c0.649,0,1.129,0.18,1.513,0.564
				c1.402,1.411,1.396,5.419,1.39,9.296l-0.001,0.802c0,8.258-0.766,17.334-1.506,26.112c-0.73,8.657-1.485,17.608-1.485,25.646
				c0,9.188,0.949,15.979,2.987,21.377l0.019,0.047c1.092,2.485,2.108,3.643,3.199,3.643c0.809,0,1.419-0.727,1.419-1.692
				C59.139,94.179,58.636,93.09,57.523,92.479z"/>
			<path fill="#736357" d="M284.639,77.003c-0.102,0-0.229,0.015-0.364,0.067h-0.195l-0.284,0.32
				c-3.695,4.17-11.063,11.167-18.897,11.167c-5.268,0-9.869-3.364-13.681-9.999c14.016-14.438,28.925-41.172,28.925-59.903
				C280.142,6.799,274.925,0,265.828,0c-7.546,0-14.018,5.21-18.716,15.069c-4.089,8.579-6.434,20.159-6.434,31.77
				c0,12.59,2.314,23.491,6.704,31.697c-2.788,2.499-5.783,3.81-8.739,3.81c-4.009,0-7.458-2.56-9.709-7.201
				c-0.357-0.754-0.683-1.441-1.116-1.912l0.104-0.104h-0.205c-0.207-0.201-0.439-0.353-0.711-0.442
				c-0.014-0.005-0.028-0.009-0.042-0.013c-0.055-0.137-0.123-0.274-0.208-0.408c-0.763-1.203-2.641-2.076-4.464-2.076
				c-4.819,0-9.271,3.516-11.939,7.49c-5.998,5.5-13.34,9.607-17.241,9.607c-0.249,0-0.945-0.727-1.176-4.049
				c-0.15-2.206-0.811-3.834-1.965-4.838c-1.003-0.873-2.342-1.253-4.01-1.125c-0.546,0.061-1.263,0.061-1.956,0.061
				c-0.802,0-1.646-0.027-2.379-0.061c3.074-3.819,5.326-9.3,5.326-13.273c0-3.495-1.728-5.499-4.741-5.499
				c-6.078,0-10.791,7.156-10.791,13.313c0,3.75,1.753,6.317,4.964,7.323c-5.67,5.846-9.99,8.817-12.849,8.817
				c-1.467,0-1.706-0.269-1.706-1.915c0-1.036,0.133-2.316,0.383-3.702l0.037-0.275c0.06-0.474,0.111-0.885,0.111-1.231
				c0-2.437-1.459-2.561-1.751-2.561c-0.937,0-2.05,0.759-3.491,2.377c-0.291,0.316-0.581,0.635-0.872,0.953
				c-2.661,2.916-5.676,6.22-7.801,6.22c-0.265,0-0.709,0-0.709-1.313c0-2.067,0.554-4.313,1.088-6.486
				c0.228-0.927,0.443-1.803,0.611-2.632c0.186-0.746,0.1-1.919-0.528-2.727c-0.435-0.559-1.071-0.867-1.792-0.867
				c-1.461,0-3.469,1.889-4.743,3.273h-0.004l-0.153,0.172c-0.107,0.119-0.209,0.232-0.303,0.34
				c-3.747,4.189-11.008,10.975-18.726,10.975c-5.266,0-9.867-3.363-13.678-9.997c9.988-10.24,19.674-25.882,24.916-40.247h0.927
				c5.938,0,13.041-0.176,20.699-1.483c4.363-0.745,7.47-2.259,9.78-4.769l0.032-0.037c0.449-0.541,0.687-1.077,0.687-1.548
				c0-0.903-0.708-1.559-1.684-1.559c-1.024,0-2.084,0.708-2.084,1.893c0,0,0,0.001,0,0.001c-1.831,1.76-4.073,2.828-6.84,3.26
				c-8.025,1.284-14.877,1.457-20.523,1.457h-0.067c2.045-6.232,3.081-11.904,3.081-16.874C138.433,6.799,133.215,0,124.119,0
				c-6.461,0-12.248,3.936-16.735,11.38c-3.826,6.349-6.579,15.114-7.783,24.755c-6.65,0.596-13.49,1.653-20.877,3.221
				c-2.678,0.561-6.176,1.375-9.5,2.708c-0.563,0.183-1.423,0.61-2.413,1.627l-4.153,4.173l5.253-2.639
				c0.319-0.161,0.899-0.394,1.366-0.581c0.242-0.098,0.46-0.185,0.619-0.253c2.764-1.009,5.645-1.801,8.808-2.423
				c7.013-1.386,13.77-2.357,20.618-2.96c-0.233,2.444-0.351,5.072-0.351,7.831c0,12.59,2.314,23.491,6.703,31.697
				c-2.787,2.499-5.782,3.81-8.739,3.81c-4.009,0-7.458-2.56-9.709-7.201c-0.357-0.754-0.683-1.441-1.116-1.912l0.103-0.104h-0.204
				c-0.207-0.201-0.439-0.353-0.71-0.442c-0.014-0.005-0.028-0.009-0.043-0.013c-0.054-0.137-0.123-0.274-0.208-0.408
				c-0.763-1.203-2.64-2.076-4.464-2.076c-7.73,0-14.514,9.047-14.514,14.516c0,1.502,0.479,2.751,1.385,3.609
				c0.915,0.868,2.203,1.305,3.827,1.305c0.186,0,0.377-0.006,0.572-0.018c4.341-0.205,8.673-4.083,12.89-11.534
				c3.143,4.846,7.194,7.394,11.792,7.394c3.521,0,7.112-1.583,10.491-4.592c4.332,6.985,9.653,10.536,15.83,10.536
				c9.711,0,17.991-8.521,21.117-12.206c0.021-0.023,0.037-0.051,0.057-0.076l0.039-0.042c0.622-0.664,1.966-2.099,2.693-2.522
				c0,0.012,0,0.024,0,0.037l-0.028,0.09c-0.142,0.483-0.326,1.046-0.527,1.663c-0.748,2.283-1.771,5.41-1.771,8.024
				c0,2.451,1.585,4.096,3.944,4.096c3.24,0,6.494-3.567,10.263-7.699l0.14-0.154c0.08-0.086,0.155-0.166,0.225-0.239
				c-0.019,0.106-0.041,0.221-0.065,0.346c-0.188,1.004-0.283,2.007-0.283,2.981c0,2.131,0.471,4.965,4.542,4.965
				c4.054,0,9.537-3.708,16.271-10.98c1.731,0.187,3.826,0.294,5.995,0.294c2.251,0,2.856,0,2.969,3.68l0.021,0.658
				c0.106,3.452,0.184,5.948,3.989,5.948c4.219,0,10.287-3.206,15.499-7.158c-0.11,0.554-0.169,1.088-0.169,1.592
				c0,1.502,0.479,2.751,1.386,3.609c0.914,0.868,2.202,1.305,3.826,1.305c0.187,0,0.378-0.006,0.573-0.018
				c4.34-0.205,8.672-4.083,12.89-11.534c3.143,4.846,7.194,7.394,11.793,7.394c3.52,0,7.11-1.583,10.489-4.592
				c4.332,6.985,9.653,10.536,15.83,10.536c9.711,0,17.992-8.521,21.117-12.206c0.197-0.216,0.31-0.496,0.31-0.773
				C285.991,77.756,285.413,77.003,284.639,77.003z M249.936,76.069c-3.638-7.675-5.556-17.79-5.556-29.364
				c0-21.623,8.097-43.989,21.647-43.989c9.376,0,11.344,8.596,11.344,15.806C277.371,35.929,263.039,62.539,249.936,76.069z
				 M222.357,73.042c0.638,0,1.425,0.325,1.642,0.868l0.033,0.075c0.09,0.181,0.249,0.5,0.527,0.741l-0.529,1.16l0.554-0.299
				c-2.218,4.495-6.278,11.034-11.134,11.034c-1.526,0-2.237-0.693-2.237-2.181C211.213,80.253,216.72,73.042,222.357,73.042z
				 M182.077,61.088c0.612,0,2.238,0,2.238,2.916c0,3.782-2.697,9.618-5.854,12.78c-2.461-0.583-3.872-1.723-3.872-5.233
				C174.589,66.954,178.788,61.088,182.077,61.088z M102.67,46.705c0-2.824,0.126-5.506,0.375-7.985
				c5.133-0.368,10.27-0.54,16.088-0.54c4.396,0,8.572,0.057,12.335,0.113c-5.074,13.576-14.247,28.493-23.242,37.776
				C104.588,68.394,102.67,58.28,102.67,46.705z M128.299,35.452c-3.42-0.061-6.957-0.123-10.628-0.123
				c-5.156,0-9.745,0.163-14.333,0.511c2.159-16.676,9.39-33.125,20.98-33.125c9.376,0,11.345,8.596,11.345,15.806
				c0,4.821-1.093,10.536-3.25,16.998C131.049,35.5,129.68,35.476,128.299,35.452z M82.29,73.909l0.033,0.075
				c0.09,0.181,0.249,0.5,0.527,0.741l-0.529,1.16l0.553-0.299c-2.217,4.495-6.278,11.034-11.133,11.034
				c-1.527,0-2.238-0.693-2.238-2.181c0-4.187,5.507-11.398,11.145-11.398C81.286,73.042,82.074,73.366,82.29,73.909z"/>
		</g>
	</g>
</g>
<text transform="matrix(1.1968 0 0 1 62.6582 139.3662)" fill="#736357" font-family="'MS-UIGothic'" font-size="19.3755">P  L  A  N  N  E  R</text>
</svg>
