<?xml version="1.0" encoding="utf-8"?>
<!-- Generator: Adobe Illustrator 16.0.0, SVG Export Plug-In . SVG Version: 6.00 Build 0)  -->
<!DOCTYPE svg PUBLIC "-//W3C//DTD SVG 1.1//EN" "http://www.w3.org/Graphics/SVG/1.1/DTD/svg11.dtd">
<svg version="1.1" id="Layer_1" xmlns="http://www.w3.org/2000/svg" xmlns:xlink="http://www.w3.org/1999/xlink" x="0px" y="0px"
	 width="203.921px" height="404.971px" viewBox="0 0 203.921 404.971" enable-background="new 0 0 203.921 404.971"
	 xml:space="preserve">
<g>
	<g>
		<g>
			<path fill="#736357" d="M123.284,44.318c0.011,0.022,0.022,0.045,0.035,0.067c-0.026-0.053-0.053-0.105-0.08-0.157
				C123.254,44.258,123.269,44.288,123.284,44.318z"/>
			<path fill="#736357" d="M108.508,21.901c0.016,0.017,0.03,0.034,0.046,0.05c-0.03-0.035-0.061-0.069-0.093-0.104
				C108.477,21.865,108.492,21.883,108.508,21.901z"/>
			<path fill="#736357" d="M104.743,17.912c0.008,0.009,0.017,0.018,0.024,0.026c-0.013-0.014-0.025-0.028-0.039-0.043
				C104.734,17.9,104.739,17.906,104.743,17.912z"/>
			<path fill="#736357" d="M96.955,212.902c-0.003,0.04-0.006,0.079-0.009,0.12c0.003-0.034,0.005-0.067,0.007-0.1
				C96.953,212.915,96.953,212.908,96.955,212.902z"/>
			<path fill="#736357" d="M87.06,157.75c-0.002-0.004-0.003-0.008-0.006-0.012c0.01,0.019,0.02,0.039,0.029,0.058
				C87.075,157.781,87.067,157.766,87.06,157.75z"/>
			<path fill="#736357" d="M72.343,174.754c-0.002,0.005-0.002,0.009-0.002,0.015c0.002-0.026,0.006-0.053,0.009-0.078
				C72.347,174.712,72.344,174.733,72.343,174.754z"/>
			<polygon fill="#736357" points="147.628,282.946 147.632,282.941 147.628,282.948 			"/>
			<path fill="#736357" d="M168.798,255.856c0.013-0.018,0.026-0.035,0.038-0.052c-0.005,0.007-0.011,0.014-0.017,0.022
				C168.812,255.836,168.805,255.846,168.798,255.856z"/>
			<path fill="#736357" d="M171.591,244.418c-0.004,0.002-0.009,0.007-0.014,0.009c0.018-0.011,0.035-0.023,0.052-0.035
				C171.616,244.401,171.604,244.409,171.591,244.418z"/>
			<path fill="#736357" d="M101.848,331.079c-0.002,0.004-0.005,0.009-0.008,0.014c0.012-0.019,0.022-0.037,0.034-0.055
				C101.865,331.053,101.856,331.065,101.848,331.079z"/>
			<path fill="#736357" d="M106.812,18.019c-0.008-0.005-0.018-0.011-0.024-0.016c-0.005-0.003-0.011-0.006-0.015-0.009
				C106.785,18.002,106.798,18.01,106.812,18.019z"/>
			<path fill="#736357" d="M170.109,110.398c-0.006-0.025-0.009-0.052-0.013-0.078c-0.008-0.039-0.016-0.076-0.022-0.115
				C170.084,110.269,170.099,110.331,170.109,110.398z"/>
			<path fill="#736357" d="M123.206,44.168c0.004,0.008,0.009,0.017,0.013,0.026c0.007,0.012,0.014,0.023,0.021,0.034
				C123.229,44.208,123.217,44.188,123.206,44.168z"/>
			<path fill="#736357" d="M168.798,255.856c-0.018,0.021-0.035,0.044-0.052,0.064c-0.013,0.014-0.023,0.028-0.035,0.044
				C168.741,255.928,168.77,255.892,168.798,255.856z"/>
			<path fill="#736357" d="M136.06,84.968c-0.001,0.002-0.001,0.005-0.001,0.008c-0.007,0.119-0.013,0.24-0.021,0.358
				C136.046,85.212,136.053,85.09,136.06,84.968z"/>
			<polygon fill="#736357" points="89.702,4.33 89.7,4.326 89.698,4.322 			"/>
			<path fill="#736357" d="M98.001,256.315c0-0.011-0.001-0.02-0.002-0.03c-0.017-0.104-0.032-0.207-0.048-0.312
				C97.967,256.087,97.983,256.201,98.001,256.315z"/>
			<path fill="#736357" d="M203.921,226.224c0.006,0,0.011,0,0.016,0c0.002,0,0.002,0,0.003-0.001
				C203.933,226.224,203.928,226.224,203.921,226.224z"/>
			<path fill="#736357" d="M135.988,104.996c0.003,0.013,0.005,0.026,0.006,0.039c0.005,0.023,0.01,0.046,0.015,0.069
				C136.003,105.068,135.996,105.033,135.988,104.996z"/>
			<path fill="#736357" d="M88.572,313.231c-0.018,0.025-0.033,0.047-0.049,0.071c-0.005,0.007-0.011,0.016-0.015,0.024
				C88.53,313.295,88.552,313.264,88.572,313.231z"/>
			<path fill="#736357" d="M204.231,226.211c-0.028,0-0.057,0-0.085,0.004c0-0.001,0-0.001,0-0.003
				c-0.052,0.005-0.103,0.008-0.153,0.01c0.005,0,0.009,0.001,0.012,0.002c-0.022-0.002-0.046,0-0.068,0
				c-17.567,6.011-35.341,14.184-48.551,27.765c0.056-0.051,0.113-0.104,0.172-0.159c-9.688,9.374-17.466,20.351-26.018,30.719
				c0.067-0.079,0.136-0.164,0.203-0.244c-17.696,21.106-30.928,45.478-47.86,67.053c-11.214,8.515-25.85,12.475-38.626,18.468
				c-0.277,0.106-0.556,0.214-0.834,0.315c16.6-17.813,34.211-35.27,46.074-56.798c-0.025,0.036-0.05,0.069-0.073,0.103
				c0.035-0.046,0.067-0.095,0.1-0.142c8.346-13.073,16.639-26.613,22.572-40.971c-0.018,0.06-0.039,0.12-0.061,0.186
				c1.87-4.868,4.062-9.684,6.602-14.226c7.554-9.771,15.687-19.122,25.845-26.321c10.418-7.643,17.606-18.884,24.328-29.772
				c13.769-21.82,9.735-48.334,6.729-72.534c-1.225-17.815-2.527-35.684-4.79-53.353c0.003-0.319,0.09-0.759-0.279-0.881
				c-0.43-0.043-0.463,0.434-0.596,0.746c0.003-0.002,0.003-0.005,0.004-0.008c-0.011,0.027-0.02,0.054-0.03,0.082
				c0.004-0.012,0.007-0.023,0.011-0.035c-0.064,0.155-0.125,0.313-0.186,0.466c0.014-0.027,0.022-0.055,0.036-0.082
				c-1.965,4.728-2.176,10.003-3.777,14.871c-1.99,5.19-5.235,9.779-7.507,14.841c-7.149,15.307-12.923,31.422-14.462,48.369
				c0.001-0.017,0.001-0.033,0.002-0.05c-0.007,0.135-0.015,0.27-0.023,0.405c0.003-0.032,0.005-0.064,0.007-0.096
				c-0.156,13.756,2.825,27.327,3.268,41.058c-0.043,3.41-0.192,7.188-1.541,10.475c0.003-0.008,0.005-0.015,0.007-0.023
				c-1.657,4.038-4.548,7.375-6.514,11.237c-1.905,4.676-2.132,9.889-4.591,14.366c0.014-0.028,0.027-0.056,0.041-0.083
				c-4.143,7.85-10.479,14.091-15.582,21.247c17.236-46.988,26.329-98.428,17.958-148.18c-0.016-0.082-0.032-0.163-0.05-0.245
				c0.011,0.05,0.021,0.1,0.032,0.148c-0.601-5.054-0.582-10.174-0.243-15.248c0.098-1.573,0.214-3.144,0.325-4.714
				c1.484-24.809-6.943-57.993-29.832-70.836c0.015,0.011,0.029,0.021,0.044,0.031c-1.599-1.061-3.13-2.234-4.703-3.327
				c0.058,0.038,0.114,0.075,0.17,0.111c-1.972-1.489-4.184-2.603-6.236-3.974c0.023,0.017,0.047,0.032,0.069,0.048
				c-0.315-0.199-0.62-0.407-0.927-0.615c0.057,0.038,0.111,0.077,0.166,0.114c-0.755-0.421-1.297-1.106-1.942-1.661
				c0.028,0.03,0.062,0.059,0.09,0.089c-0.214-0.202-0.44-0.398-0.659-0.594c0.027,0.024,0.062,0.054,0.09,0.079
				c-1.635-1.346-4.904-8.356-3.099-1.433c-0.007-0.019-0.015-0.038-0.019-0.058c0.037,0.132,0.072,0.269,0.114,0.401
				c-0.003-0.007-0.006-0.014-0.008-0.021c0.09,0.313,0.188,0.625,0.302,0.929c-0.002-0.006-0.003-0.011-0.005-0.019
				c0.009,0.029,0.018,0.057,0.026,0.085c2.456,5.601,7.217,9.85,11.706,13.887c5.442,7.552,10.557,15.474,13.371,24.443
				c3.948,13.721,2.133,28.785,10.196,41.243c0.103,0.2,0.206,0.399,0.307,0.6c-0.004-0.008-0.008-0.016-0.013-0.023
				c9.783,21.934,11.212,45.8,10.023,69.526c-7.647-15.736-16.941-30.751-20.19-48.263c-2.856-19.565-12.719-35.124-24.539-50.439
				c-0.93-0.824-6.69-8.131-6.083-4.387c11.04,28.799-5.893,53.374,19.563,80.761c-0.002-0.001-0.003-0.003-0.004-0.004
				c0.064,0.073,0.13,0.146,0.195,0.218c-0.004-0.005-0.009-0.01-0.013-0.015c0.032,0.036,0.065,0.074,0.099,0.11
				c-0.036-0.04-0.071-0.081-0.107-0.121c5.839,5.805,11.371,11.907,18.415,16.311c3.069,2.387,5.645,5.346,8.375,8.106
				c-0.092-0.11-0.188-0.215-0.287-0.324c0.443,0.495,0.898,0.982,1.345,1.475c-0.038-0.044-0.076-0.087-0.113-0.132
				c0.091,0.108,0.187,0.213,0.281,0.319c-0.051-0.056-0.102-0.111-0.151-0.168c6.707,6.568-0.166,30.223-1.355,39.568
				c-7.295,33.987-17.967,67.528-35.195,97.825c12.309-28.966,1.763-53.438,3.901-82.349c-0.002,0.026-0.004,0.053-0.007,0.08
				c0.008-0.108,0.016-0.216,0.021-0.325c-0.001,0.02-0.002,0.039-0.002,0.058c0.004-0.113,0.012-0.222,0.019-0.334
				c0.003-0.045,0.005-0.089,0.008-0.134c-0.003,0.062-0.005,0.123-0.01,0.186c0.797-6.839-0.853-13.545-1.612-20.282
				c-0.181-7.079,0.071-14.298-2.131-21.13c-3.448-10.846-11.088-19.875-13.675-31.05c0.002,0.026,0.01,0.057,0.012,0.089
				c-3.652-14.355-2.601-6.718-3.549,1.952c-1.95,10.674-4.854,21.237-6.032,32.057c0.003-0.016,0.004-0.031,0.007-0.046
				c-0.009,0.068-0.017,0.136-0.025,0.204c0.001-0.004,0.002-0.008,0.002-0.012c-0.008,0.064-0.015,0.128-0.023,0.193
				c0.002-0.013,0.004-0.025,0.005-0.039c-1.169,18.637-5.61,38.508,8.208,53.653c7.706,8.392,16.434,16.43,17.358,28.671
				c0.008,0.049,0.014,0.097,0.021,0.145c-0.001-0.01-0.002-0.019-0.004-0.03c0.039,0.251,0.077,0.501,0.118,0.751
				c-0.01-0.064-0.019-0.128-0.027-0.191c0.02,0.149,0.044,0.299,0.067,0.446c-0.004-0.023-0.008-0.048-0.012-0.072
				c0.042,2.615-0.04,5.234-0.19,7.853c0.006-0.121,0.016-0.241,0.023-0.36c-0.011,0.193-0.024,0.386-0.036,0.576
				c0.002-0.045,0.006-0.09,0.009-0.134c-0.008,0.115-0.016,0.231-0.022,0.347c0.001-0.014,0.001-0.026,0.002-0.04
				c-0.575,13.632-5.405,26.459-9.886,39.178c0.02-0.052,0.038-0.104,0.056-0.159c-3.878,11.494-12.146,21.2-19.467,30.752
				c0.017-0.021,0.033-0.041,0.052-0.061c-0.08,0.092-0.156,0.188-0.234,0.281c0.057-0.069,0.113-0.138,0.17-0.205
				C50.456,356.7,31.597,377.588,9.14,394.487c-0.092,0.114-0.193,0.223-0.291,0.332c2.803-4.45,5.809-8.779,8.003-13.593
				c2.983-3.417,5.94-6.9,9.255-10.029c-0.015,0.016-0.03,0.031-0.045,0.048c2.164-1.898,4.096-4.021,5.907-6.26
				c5.562-4.086,11.472-8.077,16.338-13.124c-0.015,0.017-0.031,0.034-0.048,0.051c0.124-0.123,0.246-0.248,0.369-0.371
				c-0.026,0.026-0.053,0.053-0.078,0.077c4.857-5.34,10.219-10.34,13.773-16.696c1.855-0.87,3.2-2.541,3.929-4.45
				c0.437-0.985,1.054-2.037,1.146-3.085l-0.001,0.001c-0.354-0.528-0.777,0.168-1.035,0.438c0.021-0.024,0.041-0.05,0.063-0.073
				c-0.042,0.047-0.083,0.095-0.125,0.143c0.089-0.471,0.059-0.951,0.116-1.419c-0.002,0.017-0.007,0.032-0.011,0.05
				c0.019-0.094,0.035-0.189,0.053-0.287c-0.003,0.023-0.006,0.047-0.01,0.071c0.088-0.28,0.181-0.856-0.295-0.696c0,0,0,0,0-0.001
				c-1.745,2.735-5.342,5.542-4.303,9.122c-6.939,10.222-16.346,18.979-26.423,26.058c5.338-6.449,9.695-13.613,13.486-21.068
				c-0.004,0.005-0.007,0.012-0.011,0.017c4.165-7.588,7.616-15.568,11.378-23.357c0.198-0.093,0.313-0.308,0.502-0.421
				c-0.029,0.02-0.062,0.039-0.091,0.06c1.466-1.084,3.422-0.724,5.116-1.1c3.458-0.508,6.593-2.736,8.726-5.469
				c0.383-1.212,4.512-4.072,2.877-4.807c-0.64-0.237-0.969,0.559-1.553,0.674c0.007-0.002,0.014-0.004,0.021-0.007
				c-1.24,0.533-2.537,0.866-3.802,1.332c-0.754,0.251-1.518,0.468-2.262,0.746c0.782-1.976,0.624-4.176,0.429-6.25
				c0.002,0.016,0.005,0.032,0.006,0.049c-0.027-1.744-0.598-3.592-1.204-5.14c-1.188-0.504-4.321,5.566-5.159,6.71
				c0.679-2.92-0.347-5.525-1.661-8.034c0.001,0.017,0.002,0.034,0.003,0.053c-0.01-0.096-0.021-0.188-0.074-0.274
				c-0.001,0-0.001,0.001-0.001,0.001c-1.594-1.331-1.232,2.723-1.521,3.562c-0.687,4.24-3.629,8.14-3.087,12.506
				c-0.004-0.046-0.007-0.091-0.007-0.136c0.041,1.801,0.684,3.729,1.94,5.04c-0.741,2.03-1.785,3.919-2.865,5.784
				c0.017-0.027,0.031-0.055,0.047-0.08c-0.028,0.048-0.056,0.097-0.084,0.146c0.008-0.014,0.016-0.029,0.024-0.043
				c-3.283,5.341-5.458,11.268-8.634,16.671c0.015-0.024,0.029-0.051,0.045-0.077c-7.004,13.978-17.079,25.979-28.109,36.908
				c10.327-20.88,18.437-42.959,24.538-65.448c4.136-23.765,12.084-31.671,26.144-49.676c0.485,0.131,0.746-0.503,1.164-0.647
				c-0.006,0.003-0.012,0.006-0.019,0.011c0.067-0.039,0.134-0.079,0.2-0.118c2.132-1.525,4.604-2.957,5.866-5.348
				c-0.02,0.03-0.038,0.063-0.057,0.096c0.065-0.115,0.131-0.229,0.192-0.343c-0.003,0.005-0.005,0.01-0.008,0.015
				c0.017-0.03,0.034-0.062,0.052-0.092c-0.007,0.011-0.014,0.022-0.02,0.034c1.557-2.496,5.363-10.416-0.47-4.888
				c1.64-6.048-0.548-1.274-3.003-0.316c-4.428,2.825-4.798,5.229-4.465,10.25c-0.002-0.013-0.003-0.024-0.003-0.035
				c0.063,1.998-1.91,3.263-3.051,4.687c-3.146,3.892-6.561,7.581-9.63,11.534c2.272-6.388,5.07-12.655,6.29-19.357
				c0.155-0.056,0.305-0.104,0.4-0.25c-0.008,0.012-0.016,0.021-0.023,0.031c0.756-0.906,1.786-1.77,1.903-3.021
				c0.002-2.076,0.253-4.269-0.193-6.297c-0.479-0.655-0.893,0.187-1.166,0.562c-0.964,1.223-2.416,2.147-2.889,3.698
				c-0.413,1.672-0.206,4.087,1.353,5.095c-0.96,4.532-2.729,8.832-4.365,13.149c0.007-0.014,0.013-0.029,0.021-0.044
				c-0.02,0.042-0.036,0.085-0.054,0.127c0.006-0.015,0.012-0.029,0.019-0.045c-2.031,4.006-2.622,8.55-5.425,12.117
				c0.032-0.055,0.067-0.112,0.101-0.166c-0.068,0.111-0.138,0.223-0.208,0.334c0.035-0.054,0.067-0.107,0.103-0.162
				c-1.451,2.355-2.651,4.855-3.794,7.373c4.224-17.347,6.316-35.107,7.041-52.927c0.243,0.248,0.688,0.205,0.915-0.045
				c5.462-0.132,8.209-5.486,9.397-10.185c0.07-1.232,3.725-5.232,0.803-4.807c-2.994,2.033-4.209,5.79-6.821,8.227
				c1.374-4.128-0.532-10.985-1.926-14.937c-1.175,0.106-1.182,2.672-1.914,3.563c-2.494,3.468-2.235,7.541-1.204,11.478
				c-1.376-6.074-5.789-8.8-10.601-11.978c0.034,0.03,0.071,0.06,0.104,0.089c-0.809-0.674-1.575,0.522-1.667,1.268
				c-0.854,2.972,1.094,5.413,2.784,7.618c0.13,0.2,0.261,0.401,0.392,0.601c-2.143-0.89-4.408-1.461-6.617-2.133
				c-1.127,0.128-0.354,1.254,0.141,1.692c0.822,1.166,1.285,2.541,2.155,3.68c2.383,4.878,8.237,3.953,12.396,6.135
				c-0.538,15.009-2.519,30.041-5.777,44.714c-1.271-9.524-3.704-18.957-4.379-28.54c-0.001,0.031-0.003,0.063-0.003,0.095
				c0.006-0.253,0.01-0.511,0.013-0.767c-0.002,0.03-0.003,0.063-0.003,0.094c0.009-0.464,0.011-0.924,0.006-1.385
				c1.069-1.888,1.795-4.149,0.837-6.267c-0.284-1.529-1.188-2.821-1.694-4.266c-0.001,0-0.002,0-0.002,0
				c-0.172-0.354-0.658-0.119-0.601,0.236c-1.912,3.276-3.066,7.988,0.771,10.405c0.003,0.221,0.013,0.44,0.012,0.659
				c0.002-0.031,0.003-0.062,0.004-0.093c-0.147,10.812,3.75,21.28,3.92,32.099c-3.189,24.111-11.663,47.385-20.47,69.988
				c2.162-12.447,2.501-25.077,1.668-37.652c1.746-7.264,3.442-14.7,5.49-21.816c-0.007,0.008-0.012,0.012-0.02,0.017
				c0.016-0.013,0.029-0.023,0.044-0.039c-0.009,0.008-0.016,0.016-0.022,0.022c1.355-0.716,1.976-2.223,1.667-3.719
				c0.001,0.009,0.002,0.018,0.003,0.025c-0.254-0.665-0.951-3.985-1.692-3.767c-1.14,1.585-1.808,5.101-0.647,6.834
				c-1.12,6.681-3.402,13.068-5.133,19.589c-0.287-8.121-0.321-16.207-1.537-24.258c0.189-0.167,0.438-0.237,0.678-0.309
				c8.338-1.25,9.72-10.314,9.777-17.295c0.303-0.912-0.668-1.034-0.917-0.208c-0.933,1.479-2.288,2.644-3.467,3.918
				c-0.304-0.969-0.829-8.579-1.964-7.718c-2.635,4.564-5.605,9.547-5.871,14.933c-1.017-3.35-3.116-6.544-6.072-8.454
				c-0.022-0.014-0.046-0.029-0.069-0.04c0.008,0.004,0.015,0.007,0.022,0.01c-0.029-0.017-0.06-0.034-0.09-0.052
				c0.02,0.012,0.04,0.022,0.058,0.032c-1.239-0.93-2.435-2.192-4.107-2.16c0.02-0.001,0.04-0.001,0.06,0
				c-0.078-0.009-0.158-0.032-0.236-0.028c0.013,0,0.023,0,0.035,0c-0.034-0.002-0.064-0.006-0.097-0.015
				c-0.366-0.204-0.907,0.087-0.679,0.525c-0.001,0-0.001-0.001-0.001-0.002c0.962,2.499,2.137,4.897,3.103,7.399
				c-0.413-0.355-0.854-0.692-1.397-0.815c0.029,0.008,0.063,0.017,0.093,0.025c-3.245-0.945-3.246-3.403-7.121-2.937
				c0,0.001,0.001,0.001,0.001,0.001c-0.938,0.413,0.506,1.146,0.799,1.567c1.161,1.253,1.69,2.94,2.546,4.399
				c-0.006-0.007-0.011-0.017-0.017-0.024c1.894,5.041,7.323,6.094,11.964,7.097c-0.024-0.007-0.049-0.013-0.074-0.021
				c0.697,0.149,1.396,0.325,2.09,0.492c0.051,1.266,0.165,2.526,0.36,3.779c-0.008-0.043-0.016-0.089-0.022-0.135
				c1.126,8.354,0.06,16.802,1.004,25.177c-2.339-5.058-5.353-9.739-7.117-15.068c0.853-3.183-0.136-6.376-2.156-8.952
				c0.005,0.009,0.01,0.019,0.015,0.028c-0.016-0.034-0.037-0.065-0.055-0.099c0.011,0.018,0.021,0.034,0.031,0.053
				c-0.981-2.316-1.32,0.277-1.665,1.299c-0.757,2.723,0.004,5.958,2.535,7.457c-0.016-0.01-0.032-0.019-0.047-0.028
				c0.028,0.017,0.059,0.037,0.088,0.056c-0.006-0.004-0.013-0.009-0.02-0.014c0.061,0.04,0.12,0.076,0.181,0.113
				c-0.01-0.007-0.021-0.014-0.031-0.021c0.152,0.088,0.291,0.217,0.453,0.277c8.167,19.774,9.133,14.792,7.284,37.941
				c0.004-0.024,0.006-0.049,0.01-0.073c-0.01,0.08-0.02,0.16-0.029,0.24c-0.715,7.19-2.02,14.343-3.416,21.384
				c-4.348,8.867-8.234,18.004-13.228,26.528c0.009-0.015,0.018-0.029,0.026-0.046c-0.585,1.39-5.256,7.772-7.85,12.435
				c-1.126,0.962-2.082,2.014-2.609,3.299c-0.197,1.255,0.736,1.826,1.754,1.822c0.045,0.002,0.089,0.001,0.133-0.001
				c0.029-0.003,0.059-0.006,0.089-0.008c0.007-0.001,0.014-0.001,0.021-0.002c0.468-0.043,0.936-0.203,1.304-0.475
				c-0.118,0.057-0.229,0.111-0.347,0.169c0.188-0.093,0.378-0.182,0.565-0.28c-0.028,0.015-0.057,0.027-0.085,0.042
				c0.514-0.261,0.988-0.569,1.433-0.938c-0.036,0.032-0.071,0.064-0.106,0.096c3.914-3.115,7.774-6.242,11.727-9.308
				c-0.067,0.06-0.135,0.12-0.205,0.179c9.215-7.25,16.35-17.726,27.51-21.99c-0.108,0.039-0.217,0.084-0.324,0.124
				c18.012-7.967,38.031-5.562,56.585-10.968c12.673-3.911,21.907-14.029,29.943-24.12c15.253-13.931,23.128-33.036,31.313-51.57
				c7.651-19.888,19.865-37.167,34.73-52.249c2.519-2.357,4.941-4.968,7.898-6.693c0.092-0.029,0.179-0.079,0.274-0.092
				c-0.001,0-0.001,0-0.001,0C204.619,226.851,204.616,226.234,204.231,226.211z M146.105,161.196
				c-1.164-23.765,9.707-45.775,20.227-66.279c-4.93,33.941-9.421,68.118-16.619,101.665
				C148.634,184.778,146.949,173.021,146.105,161.196z M139.322,221.357c0.865-4.835,3.575-8.959,6.343-12.913
				c-2.183,4.951-4.443,9.855-6.547,14.842C139.181,222.642,139.252,222.002,139.322,221.357z M139.234,229.615
				c13.563-23.088,17.563-49.729,20.895-75.92c2.423-19.871,6.889-39.416,8.429-59.396c0.559,5.336,0.593,10.75,1.539,16.021
				c0.057,0.306,0.119,0.608,0.178,0.916c0-0.001,0-0.002-0.001-0.003c1.21,25.902,9.061,52.508,0.589,77.864
				c-5.159,13.218-13.665,25.393-23.583,35.373c-0.465,0.349-0.934,0.693-1.396,1.048c0.03-0.023,0.06-0.046,0.09-0.07
				c-2.44,1.618-4.791,3.336-7.246,4.917C138.897,230.115,139.074,229.869,139.234,229.615z M130.494,92.662
				c-2.117-7.891-7.003-14.696-9.079-22.572c-2.246-15.644-2.85-32.188-12.857-45.297c6.241,6.195,9.13,14.575,13.173,22.208
				c1.834,3.708,3.436,7.557,4.352,11.603c-0.024-0.125-0.049-0.251-0.074-0.376c2.678,11.573,2.872,23.489,4.812,35.159
				C130.712,93.145,130.604,92.905,130.494,92.662z M133.126,89.554c-0.719-3.684-0.701-7.458-1.136-11.181
				c-1.374-10.567-2.123-21.651-7.226-31.205c0.005,0.009,0.01,0.018,0.014,0.026c-0.473-0.939-0.974-1.87-1.459-2.808
				c0.013,0.028,0.027,0.057,0.04,0.084c-0.046-0.093-0.093-0.185-0.141-0.276c-3.633-6.251-6.292-13.176-11.296-18.505
				c0.024,0.027,0.05,0.054,0.074,0.08c-0.05-0.055-0.099-0.107-0.146-0.162c0.016,0.018,0.033,0.036,0.049,0.053
				c-0.252-0.279-0.499-0.563-0.752-0.842c0.059,0.064,0.109,0.125,0.167,0.189c-0.913-1.026-1.839-2.036-2.761-3.056
				c0.013,0.015,0.025,0.03,0.038,0.044c-0.054-0.061-0.106-0.12-0.161-0.179c0.011,0.01,0.02,0.021,0.03,0.031
				c-1.182-1.349-2.48-2.586-3.693-3.91c0.027,0.032,0.056,0.064,0.083,0.096c-0.051-0.059-0.102-0.117-0.154-0.174
				c0.011,0.011,0.021,0.023,0.032,0.035c-2.214-2.847-5.188-4.827-8.001-7.004c2.686,1.616,5.043,3.72,7.628,5.487
				c-0.035-0.023-0.07-0.046-0.106-0.068c0.837,0.582,1.678,1.15,2.538,1.693c16.266,9.692,21.128,28.489,25.491,45.715
				c-0.025-0.125-0.051-0.256-0.075-0.382C134.083,71.929,133.508,80.83,133.126,89.554z M123.771,144.84
				c-0.097-0.064-0.194-0.128-0.289-0.194c0.122,0.082,0.243,0.163,0.365,0.244c-0.003-0.002-0.007-0.004-0.01-0.006
				c0.019,0.012,0.037,0.025,0.056,0.037C123.853,144.894,123.812,144.867,123.771,144.84z M125.242,145.808
				c-20.183-13.117-36.844-35.604-33.215-60.868c0.187-6.387-0.807-12.755-1.172-19.126c0.75,1.657,1.682,3.208,2.417,4.873
				c-0.031-0.072-0.063-0.149-0.095-0.221c0.348,0.808,0.702,1.615,1.06,2.416c-0.017-0.034-0.031-0.067-0.047-0.1
				c3.355,7.464,7.937,14.443,8.329,22.875c-0.003-0.021-0.006-0.043-0.011-0.064c1.271,19.407,11.751,35.359,22.985,50.431
				C125.408,145.954,125.331,145.874,125.242,145.808z M104.942,95.437C104.073,81.958,93.755,71.7,90.101,59.246
				c5.76,9.667,14.126,17.884,17.685,28.767c5.316,20.188,9.939,40.709,21.313,58.49
				C117.974,131.085,107.004,114.919,104.942,95.437z M78.547,152.373c0.003-0.027,0.007-0.054,0.01-0.08
				c-0.003,0.032-0.008,0.064-0.012,0.097C78.546,152.383,78.547,152.378,78.547,152.373z M96.415,240.502
				c-5.845-9.383-15.906-15.372-20.006-26.163c-2.903-6.337-2.237-13.237-1.926-19.983c-0.453-13.984,1.62-27.793,4.009-41.509
				c0.002-0.02,0.004-0.04,0.007-0.059c-0.003,0.019-0.004,0.036-0.006,0.055c0-0.003,0-0.007,0.001-0.011
				c0.331-2.854,0.749-5.71,1.392-8.51c0.675,33.29,13.391,64.553,17.129,97.38C96.821,241.298,96.64,240.888,96.415,240.502z
				 M96.956,212.883c-0.006,0.096-0.011,0.192-0.016,0.287c0.002-0.049,0.004-0.1,0.006-0.148c-0.116,1.847-0.291,3.693-0.393,5.542
				c-0.004-0.024-0.002-0.049,0-0.072c-0.002,0.019-0.003,0.039-0.004,0.058c-0.641-2.585-1.248-5.171-1.879-7.759
				c-2.951-11.95-6.396-23.794-8.658-35.9c0.024,0.114,0.048,0.229,0.072,0.344c-1.886-8.833-3.293-17.729-3.748-26.763
				c1.146,3.28,3.127,6.199,4.717,9.268c-0.013-0.027-0.025-0.053-0.039-0.081c0.029,0.062,0.062,0.122,0.094,0.182
				c6.153,10.091,8.75,21.459,8.232,33.24C96.078,198.342,97.924,205.521,96.956,212.883z M66.443,326.061
				c0.001,0,0.002-0.001,0.003-0.001C66.445,326.061,66.444,326.061,66.443,326.061C66.443,326.061,66.443,326.061,66.443,326.061z
				 M66.228,329.058c-0.088,0.192-0.177,0.383-0.27,0.574c0.012-0.026,0.025-0.053,0.035-0.078
				c-0.776,1.571-1.517,3.323-3.144,4.188c0.606-1.543,1.676-2.835,2.793-4.033c-0.015,0.019-0.029,0.037-0.042,0.053
				C65.808,329.528,66.025,329.302,66.228,329.058z M62.543,331.905c0.89-1.741,2.402-3.07,3.279-4.823
				c-0.024,0.445-0.142,0.879-0.224,1.318c0.002-0.006,0.002-0.011,0.003-0.015c-0.008,0.135-0.085,0.272-0.049,0.402
				c-0.033,0.042-0.07,0.079-0.106,0.12c0.013-0.014,0.025-0.028,0.038-0.042c-1.309,1.452-2.749,2.953-3.248,4.904
				C62.174,333.123,62.233,332.489,62.543,331.905z M74.17,307.35c0.035-0.011,0.068-0.023,0.103-0.034
				c-0.022,0.007-0.047,0.015-0.07,0.023c0.031-0.012,0.063-0.021,0.095-0.032c-0.008,0.003-0.017,0.006-0.024,0.009
				c0.055-0.018,0.11-0.037,0.161-0.055c-0.011,0.005-0.021,0.008-0.032,0.012c0.04-0.015,0.08-0.027,0.119-0.041
				c-0.256,0.34-0.506,0.687-0.761,1.027c-2.343,3.668-6.5,5.681-10.751,5.952C66.79,311.83,69.646,308.332,74.17,307.35z
				 M68.984,298.312c-0.002,0.01-0.005,0.019-0.007,0.029c0.011-0.054,0.021-0.107,0.031-0.16c-0.002,0.01-0.004,0.019-0.007,0.029
				c0.016-0.074,0.029-0.148,0.044-0.22c-0.007,0.042-0.016,0.081-0.021,0.122c0.012-0.062,0.022-0.124,0.033-0.186
				c0.711,3.122,0.786,6.795-0.51,9.777c-0.042,0.087-0.084,0.176-0.125,0.262c-0.823,1.045-2.002,1.866-3.057,2.7
				c0.559-0.818,1.025-1.691,1.486-2.571C68.629,305.156,68.677,301.634,68.984,298.312z M64.733,303.546
				c0.957-1.703,2.069-3.306,3.205-4.892c-0.205,5.747-2.641,11.903-7.441,15.267C60.563,310.049,62.717,306.696,64.733,303.546z
				 M59.445,313.825c-0.092-0.203-0.171-0.41-0.243-0.62c-0.037-0.108-0.077-0.218-0.111-0.329c0.002,0.009,0.005,0.017,0.007,0.025
				c-2.165-5.622,2.74-10.771,2.899-16.374c0.073,0.117,0.146,0.234,0.223,0.351c-0.008-0.013-0.017-0.024-0.025-0.036
				c1.194,2.083,0.829,4.657,0.38,6.91c0.004-0.019,0.007-0.036,0.011-0.056c-0.077,0.493-0.176,0.993-0.158,1.492
				C60.904,307.837,59.53,310.713,59.445,313.825z M80.416,247.062c0,0,0.002-0.001,0.003-0.001
				C80.418,247.061,80.417,247.062,80.416,247.062C80.416,247.062,80.416,247.062,80.416,247.062z M77.905,249.233
				c0.617-0.438,1.2-0.924,1.759-1.437c-0.162,1.143-0.67,2.175-1.231,3.166c0.019-0.028,0.033-0.054,0.051-0.082
				c-1.533,3.295-4.396,5.456-7.357,7.387c0.645-1.086,1.06-2.298,1.718-3.382c-0.005,0.006-0.009,0.015-0.013,0.022
				c0.245-0.412,0.461-0.84,0.695-1.261c-0.008,0.013-0.015,0.025-0.022,0.037c0.021-0.034,0.041-0.07,0.061-0.104
				c-0.004,0.008-0.009,0.015-0.013,0.024C74.62,251.826,76.242,250.437,77.905,249.233z M71.03,253.664
				c0.061-0.237,0.127-0.472,0.177-0.711c0.808-2.62,3.946-3.761,5.809-5.564c-0.107,0.417-0.233,0.829-0.352,1.243
				c0.008-0.03,0.017-0.064,0.024-0.093c-0.037,0.251-0.246,0.429-0.301,0.669c-2.955,2.106-4.588,5.361-5.752,8.709
				c0.014-0.021,0.028-0.046,0.041-0.069c-0.026,0.047-0.053,0.095-0.08,0.142c0.109-1.453,0.219-2.911,0.44-4.347
				C71.034,253.65,71.031,253.657,71.03,253.664z M65.111,247.552c-0.028,1.064-0.079,2.128-0.137,3.192
				c0.133,1.308-0.65,2.224-1.447,3.144C63.078,251.675,64.016,249.432,65.111,247.552z M62.839,253.7
				c-0.412-0.644-0.487-1.422-0.606-2.16c-0.069-1.023,0.438-1.988,1.087-2.744C62.727,250.349,62.559,252.058,62.839,253.7z
				 M60.571,229.976c0.008-0.01,0.016-0.018,0.023-0.027c-0.005,0.006-0.01,0.011-0.013,0.016c2.104-1.949,3.679-4.323,5.325-6.649
				c-1.36,4.286-2.891,9.501-7.995,10.34c0.833-1.231,1.586-2.528,2.605-3.618c-0.013,0.015-0.023,0.025-0.034,0.038
				C60.512,230.041,60.542,230.008,60.571,229.976z M58.569,215.185c1.423,5.741,3.029,12.333-1.731,16.983
				c-0.102,0.117-0.203,0.232-0.306,0.349c0.038-2.611-0.068-5.202-0.637-7.762c-0.054-0.367-0.088-0.742-0.118-1.111
				c0,0.018,0.001,0.034,0.002,0.052c-0.002-0.036-0.004-0.073-0.007-0.109C55.303,220.426,57.526,217.964,58.569,215.185z
				 M54.078,233.812c-6.221-2.21-9.758-1.607-12.33-8.771c4.481,0.67,7.855,3.514,10.925,6.657c-0.032-0.024-0.063-0.054-0.093-0.08
				c0.249,0.226,0.496,0.454,0.754,0.673c-0.03-0.026-0.058-0.051-0.089-0.076c0.574,0.511,1.181,1.076,1.363,1.854
				C54.436,233.977,54.262,233.884,54.078,233.812z M49.96,227.699c-1.878-1.623-2.962-3.907-4.509-5.814
				c-0.853-1.191-1.105-2.679-0.862-4.11c-0.006,0.033-0.013,0.067-0.021,0.101c0.01-0.05,0.021-0.099,0.029-0.147
				c-0.002,0.008-0.003,0.017-0.005,0.024c0.043-0.204,0.093-0.402,0.17-0.594c0.122,0.113,0.246,0.223,0.371,0.33
				c-0.016-0.014-0.031-0.029-0.048-0.044c0.357,0.325,0.791,0.545,1.223,0.748c-0.042-0.02-0.084-0.04-0.126-0.06
				c0.795,0.392,1.52,0.898,2.174,1.496c-0.032-0.032-0.07-0.063-0.106-0.096c2.174,1.759,4.681,3.445,5.367,6.344
				c0.101,0.282,0.202,0.564,0.302,0.846c1.056,2.099,1.118,4.667,1.82,6.725c-0.045,0.063-0.104,0.113-0.135,0.182
				c-0.112,0.019-0.22,0.057-0.314,0.12C54.321,231.216,51.714,229.684,49.96,227.699z M42.614,245.808
				c-0.199-1.387-0.039-2.932,0.443-4.249c-0.062,1.839-0.41,3.772,0.179,5.556C42.985,246.701,42.772,246.266,42.614,245.808z
				 M43.527,245.484c-0.046-1.781,0.187-3.558,0.213-5.34c0.062,0.152,0.116,0.312,0.192,0.456c0.278,0.5,0.489,1.034,0.664,1.58
				c-0.009-0.027-0.019-0.052-0.029-0.082c0.644,1.924,0.771,4.018-0.437,5.741C43.69,247.131,43.555,246.306,43.527,245.484z
				 M35.576,288.067c0.253,0.579,0.338,1.205,0.281,1.834c0.001-0.008,0.003-0.016,0.003-0.022
				c-0.002,0.019-0.004,0.038-0.005,0.058c-0.001-0.004,0-0.009,0.001-0.014c-0.088,0.695-0.369,1.493-1.023,1.831
				c0.796-1.327,0.845-2.779,0.577-4.275C35.483,287.67,35.521,287.868,35.576,288.067z M33.94,289.744
				c0.141-1.048,0.412-2.076,0.711-3.087c0.195,1.587,0.788,3.369-0.472,4.674C33.898,290.856,33.93,290.278,33.94,289.744z
				 M17.129,275.23c-0.604-1.585-1.418-3.07-1.968-4.675c0.933,0.041,1.914,0.521,2.591,1.172v-0.001
				c0.412,0.437,0.869,0.824,1.395,1.116c-0.018-0.009-0.036-0.021-0.054-0.03c0.001,0.001,0.002,0.002,0.003,0.002
				c-0.005-0.003-0.011-0.006-0.016-0.01c4.139,2.988,5.527,8.214,6.567,12.979C20.791,284.624,18.888,279.405,17.129,275.23z
				 M25.299,286.439c-0.407-0.097-0.813-0.193-1.21-0.327c0.004,0,0.009,0.001,0.014,0.003c-0.026-0.008-0.054-0.016-0.08-0.021
				c0,0,0,0,0.001,0c-0.238-0.066-0.477-0.122-0.714-0.185c0,0,0.003,0.001,0.004,0.001c-0.439-0.167-0.856-0.392-1.322-0.479
				c0.039,0.013,0.08,0.022,0.119,0.036c-3.794-0.584-7.4-2.449-8.98-6.146c-0.021-0.037-0.044-0.075-0.065-0.11
				c0.011,0.015,0.021,0.03,0.029,0.045c-0.967-1.62-1.653-3.503-3.174-4.696c0.561-0.013,1.117,0.051,1.661,0.184
				c-0.004-0.001-0.007-0.001-0.011-0.002c1.096,0.51,1.765,1.736,2.924,2.225c1.258,0.669,2.659,1.235,3.249,2.653
				c-0.001-0.002-0.003-0.004-0.004-0.005c0.009,0.015,0.019,0.029,0.027,0.045c1.816,2.244,3.331,5.534,6.325,6.322
				c-0.012-0.005-0.024-0.01-0.037-0.014c0.58,0.145,1.148,0.342,1.729,0.481c0.015,0.047,0.046,0.085,0.069,0.127
				C25.67,286.524,25.485,286.484,25.299,286.439z M33.43,275.022c0.177-0.25,0.208-0.585,0.376-0.849
				c0.811-1.154,1.984-2.001,2.785-3.176c-0.104,2.521,0.319,4.987-0.98,7.313c-1.005,3.747-3.51,6.903-7.457,7.669
				c0.003,0,0.006-0.002,0.01-0.003c-0.169,0.047-0.331,0.106-0.495,0.161c0.283-0.415,0.569-0.827,0.918-1.186
				c-0.016,0.016-0.03,0.03-0.047,0.045c0.027-0.025,0.055-0.053,0.081-0.08C31.124,282.244,33.116,278.728,33.43,275.022z
				 M31.43,266.854c0.01-0.018,0.021-0.037,0.032-0.056c-0.013,0.023-0.026,0.046-0.041,0.069
				C31.424,266.863,31.427,266.858,31.43,266.854z M26.897,285.374c-0.089-2.473-0.716-4.939-0.088-7.402
				c1.099-3.768,2.857-7.37,4.514-10.929c0.028-0.053,0.058-0.104,0.087-0.155C33.316,274.226,32.379,279.921,26.897,285.374z
				 M19.416,300.669c0.017,0.01,0.032,0.019,0.048,0.029c-0.022-0.015-0.042-0.026-0.063-0.04c-0.974-0.709-1.895-1.631-2.13-2.86
				c0,0.002,0,0.004,0.001,0.005c-0.267-1.225-0.344-2.518-0.006-3.735c0.01,2.442,0.931,4.632,2.22,6.645
				C19.462,300.698,19.439,300.684,19.416,300.669z M19.732,299.733c-1.258-1.828-1.522-4.087-1.63-6.256
				c0.062,0.083,0.117,0.169,0.173,0.252C19.33,295.503,20.292,297.637,19.732,299.733z M27.441,351.746
				c-0.008,0.074-0.016,0.146-0.023,0.218c-0.002,0.004-0.003,0.008-0.004,0.011C27.423,351.899,27.433,351.823,27.441,351.746z
				 M97.053,338.578c-0.042,0.072-0.084,0.146-0.126,0.218c1.63-2.577,3.383-5.064,4.913-7.703
				c-0.007,0.011-0.015,0.022-0.022,0.034c2.607-4.126,4.304-8.751,7.058-12.8c-0.042,0.077-0.089,0.148-0.131,0.227
				c0.628-1.027,1.312-2.012,1.935-3.04c-0.008,0.014-0.016,0.025-0.022,0.039c0.497-0.795,0.993-1.591,1.485-2.39
				c-0.048,0.079-0.094,0.155-0.141,0.234c0.477-0.767,0.939-1.544,1.411-2.31c-0.047,0.077-0.095,0.15-0.142,0.228
				c0.256-0.41,0.5-0.826,0.756-1.236c-0.034,0.055-0.068,0.112-0.103,0.169c16.834-23.896,34.351-47.86,57.653-65.821
				c-0.014,0.01-0.029,0.02-0.044,0.03c0.063-0.042,0.124-0.087,0.187-0.131c-0.03,0.023-0.061,0.045-0.091,0.065
				c5.344-3.332,10.81-6.441,16.276-9.561c-0.476,0.349-0.951,0.699-1.423,1.056c-7.251,5.624-13.965,12.122-19.675,19.325
				c-0.02,0.026-0.04,0.053-0.061,0.079c0.012-0.016,0.023-0.031,0.034-0.046c-0.28,0.362-0.559,0.727-0.837,1.091
				c0.014-0.017,0.026-0.034,0.04-0.053c-0.685,0.894-1.365,1.793-2.045,2.69c0.054-0.072,0.11-0.147,0.164-0.22
				c-6.225,7.556-10.792,16.251-16.472,24.188c0.048-0.063,0.097-0.127,0.146-0.188c-0.064,0.085-0.135,0.169-0.198,0.257
				c0.016-0.02,0.032-0.042,0.048-0.063c-0.078,0.102-0.155,0.197-0.232,0.302c0.028-0.035,0.056-0.069,0.084-0.105
				c-0.058,0.073-0.114,0.146-0.17,0.218c0.027-0.038,0.058-0.074,0.086-0.112c-0.039,0.051-0.079,0.102-0.119,0.154
				c0.007-0.008,0.014-0.017,0.02-0.023c-0.057,0.072-0.113,0.146-0.17,0.22c0.067-0.09,0.131-0.173,0.198-0.263
				c-15.807,19.478-33.864,36.878-50.497,55.611C96.901,338.825,96.979,338.704,97.053,338.578z M192.927,232.901
				c-14.602,15.276-26.42,32.933-34.079,52.73c0.041-0.099,0.076-0.197,0.117-0.296c-2.664,6.627-6.354,12.777-9.072,19.38
				c0.045-0.105,0.086-0.208,0.131-0.313c-8.271,19.059-23.519,34.504-38.603,48.332c-13.11,9.888-30.276,9.521-45.874,10.328
				c20.929-6.608,34.426-23.517,48.539-39.263c12.761-12.376,24.343-25.948,35.659-39.64c6.356-9.405,11.813-19.404,19.001-28.24
				c0.043-0.057,0.087-0.111,0.13-0.17c-0.014,0.019-0.027,0.037-0.04,0.054c7.097-8.946,15.688-16.596,24.747-23.479
				C193.365,232.52,193.142,232.704,192.927,232.901z"/>
			<path fill="#736357" d="M78.495,152.828c0,0.001-0.001,0.002-0.001,0.004c-0.002,0.02-0.005,0.042-0.008,0.062
				C78.489,152.872,78.492,152.85,78.495,152.828z"/>
			<path fill="#736357" d="M166.798,255.223c0.003-0.003,0.007-0.007,0.01-0.011c0.005-0.006,0.01-0.012,0.016-0.02
				C166.814,255.203,166.808,255.212,166.798,255.223z"/>
			<path fill="#736357" d="M87.168,157.956c-0.02-0.039-0.039-0.078-0.06-0.115c-0.009-0.015-0.017-0.029-0.025-0.043
				C87.11,157.85,87.139,157.902,87.168,157.956z"/>
			<path fill="#736357" d="M78.479,152.949c-0.007,0.059-0.014,0.119-0.021,0.179c0.01-0.073,0.019-0.142,0.026-0.212
				c-0.001,0.004-0.002,0.008-0.002,0.012c0.004-0.028,0.007-0.056,0.011-0.085c-0.001,0.001-0.001,0.002-0.001,0.004
				c-0.008,0.057-0.015,0.113-0.021,0.169C78.475,152.993,78.477,152.971,78.479,152.949z"/>
			<path fill="#736357" d="M161.37,285.842c-0.012,0.026-0.022,0.052-0.035,0.077c-0.027,0.072-0.059,0.146-0.086,0.218
				C161.29,286.037,161.33,285.939,161.37,285.842z"/>
			<path fill="#736357" d="M96.955,212.902c0-0.006,0.001-0.013,0.001-0.019c0.001-0.016,0.002-0.031,0.003-0.047
				C96.957,212.858,96.956,212.88,96.955,212.902z"/>
			<path fill="#736357" d="M96.554,218.491c0.002-0.032,0.005-0.063,0.007-0.094C96.561,218.428,96.557,218.459,96.554,218.491z"/>
			<path fill="#736357" d="M92.038,84.862c-0.005,0.026-0.007,0.051-0.011,0.078c-0.001,0.026-0.001,0.051-0.001,0.076
				C92.03,84.964,92.033,84.913,92.038,84.862z"/>
			<path fill="#736357" d="M186.394,235.953c0.029-0.022,0.06-0.044,0.089-0.066s0.058-0.046,0.086-0.068
				C186.509,235.864,186.453,235.906,186.394,235.953z"/>
			<path fill="#736357" d="M45.499,215.603c-0.001,0.006-0.002,0.013-0.003,0.019c0.001-0.007,0.002-0.015,0.004-0.022
				C45.5,215.601,45.5,215.602,45.499,215.603z"/>
			<path fill="#736357" d="M56.684,221.489c0-0.01-0.001-0.021-0.002-0.031c0,0.006,0,0.012,0.001,0.017
				C56.683,221.479,56.684,221.484,56.684,221.489z"/>
			<path fill="#736357" d="M20,270.66c-0.028-0.02-0.058-0.036-0.086-0.053c0.026,0.016,0.054,0.033,0.083,0.051
				C19.998,270.659,19.999,270.659,20,270.66z"/>
			<path fill="#736357" d="M14.028,277.153c0.002,0.002,0.004,0.005,0.005,0.009c-0.011-0.021-0.021-0.04-0.033-0.061
				C14.01,277.119,14.02,277.137,14.028,277.153z"/>
			<path fill="#736357" d="M18.649,277.466c0.005,0.009,0.01,0.018,0.016,0.028c-0.004-0.01-0.009-0.017-0.014-0.025
				C18.651,277.468,18.65,277.467,18.649,277.466z"/>
			<path fill="#736357" d="M36.765,287.749c0,0.006-0.002,0.014-0.002,0.021c0-0.004,0.001-0.008,0.002-0.012
				C36.765,287.756,36.765,287.753,36.765,287.749z"/>
			<path fill="#736357" d="M19.387,272.052c0.006,0.004,0.011,0.008,0.017,0.012s0.014,0.008,0.02,0.012
				C19.411,272.067,19.399,272.059,19.387,272.052z"/>
			<path fill="#736357" d="M40.074,223.474c0.007,0.003,0.012,0.003,0.019,0.006c0,0,0,0,0-0.001
				C40.087,223.477,40.081,223.477,40.074,223.474z"/>
			<path fill="#736357" d="M71.946,258.899c-0.006,0.002-0.012,0.006-0.017,0.009c-0.004,0.002-0.008,0.006-0.011,0.008
				C71.928,258.909,71.938,258.904,71.946,258.899z"/>
			<path fill="#736357" d="M27.101,339.57c0.001-0.008,0.001-0.015,0.002-0.022c0.003-0.029,0.007-0.057,0.01-0.084
				C27.108,339.499,27.104,339.534,27.101,339.57z"/>
			<path fill="#736357" d="M28.633,284.905c-0.004,0.003-0.009,0.009-0.013,0.013c-0.003,0.003-0.006,0.007-0.01,0.011
				C28.618,284.92,28.626,284.912,28.633,284.905z"/>
			<path fill="#736357" d="M53.934,226.762c-0.006-0.014-0.011-0.026-0.015-0.04c-0.002-0.004-0.004-0.008-0.006-0.012
				C53.92,226.727,53.926,226.744,53.934,226.762z"/>
			<path fill="#736357" d="M17.778,279.678c-0.004-0.006-0.008-0.014-0.012-0.02c-0.003-0.004-0.005-0.008-0.008-0.011
				C17.765,279.658,17.771,279.668,17.778,279.678z"/>
			<polygon fill="#736357" points="13.126,279.314 13.13,279.32 13.133,279.327 			"/>
			<path fill="#736357" d="M53.622,225.896c-0.001-0.007-0.004-0.012-0.005-0.02c-0.015-0.042-0.03-0.084-0.047-0.127
				C53.589,225.796,53.605,225.848,53.622,225.896z"/>
			<path fill="#736357" d="M74.177,307.348c-0.002,0-0.004,0.001-0.007,0.002c-0.021,0.008-0.042,0.015-0.063,0.021
				C74.13,307.364,74.154,307.356,74.177,307.348z"/>
			<path fill="#736357" d="M55.771,223.583c0.001,0.002,0.001,0.003,0.001,0.003c0.002,0.01,0.002,0.017,0.002,0.024
				C55.774,223.603,55.772,223.593,55.771,223.583z"/>
			<path fill="#736357" d="M56.831,232.178c0.003-0.003,0.005-0.007,0.007-0.01c0.004-0.003,0.008-0.008,0.012-0.012
				C56.844,232.164,56.838,232.17,56.831,232.178z"/>
		</g>
	</g>
</g>
</svg>
