<?xml version="1.0" encoding="utf-8"?>
<!-- Generator: Adobe Illustrator 16.0.0, SVG Export Plug-In . SVG Version: 6.00 Build 0)  -->
<!DOCTYPE svg PUBLIC "-//W3C//DTD SVG 1.1//EN" "http://www.w3.org/Graphics/SVG/1.1/DTD/svg11.dtd">
<svg version="1.1" id="Layer_1" xmlns="http://www.w3.org/2000/svg" xmlns:xlink="http://www.w3.org/1999/xlink" x="0px" y="0px"
	 width="403.139px" height="475.215px" viewBox="0 0 403.139 475.215" enable-background="new 0 0 403.139 475.215"
	 xml:space="preserve">
<g>
	<path fill="#736357" d="M236.439,0c-31.918,0-62.883,6.283-92.033,18.674c-28.155,11.967-53.44,29.1-75.155,50.921
		c-21.713,21.819-38.761,47.231-50.67,75.524C6.252,174.414,0,205.531,0,237.607c0,32.077,6.252,63.195,18.581,92.488
		c11.909,28.295,28.957,53.705,50.67,75.526c21.715,21.821,47,38.953,75.155,50.921c29.15,12.391,60.115,18.673,92.033,18.673
		c31.674,0,62.419-6.19,91.381-18.397c27.975-11.79,53.147-28.684,74.819-50.209c0.66-0.656,0.666-1.726,0.014-2.389
		c-0.653-0.664-1.718-0.67-2.377-0.015c-43.909,43.612-102.095,67.631-163.837,67.631c-128.52,0-233.077-105.075-233.077-234.229
		C3.362,108.454,107.92,3.378,236.439,3.378c23.637,0,46.957,3.544,69.311,10.531c0.889,0.278,1.829-0.222,2.104-1.111
		c0.276-0.891-0.219-1.838-1.105-2.115C284.071,3.595,260.415,0,236.439,0z"/>
</g>
</svg>
